<?xml version="1.0" standalone="no"?><!DOCTYPE svg PUBLIC "-//W3C//DTD SVG 1.1//EN" "http://www.w3.org/Graphics/SVG/1.1/DTD/svg11.dtd"><svg height="353" node-id="1" sillyvg="true" template-height="353" template-width="452" version="1.1" viewBox="0 0 452 353" width="452" xmlns="http://www.w3.org/2000/svg" xmlns:xlink="http://www.w3.org/1999/xlink"><defs node-id="182"><mask height="1.2" id="mask-4" node-id="85" width="1.2" x="-0.1" y="-0.1"><path d="M 397.52 94.16 L 397.62 100.04 L 397.17 104.90 L 396.25 108.88 L 394.95 112.13 L 393.30 114.77 L 391.30 116.89 L 388.94 118.55 L 386.16 119.77 L 382.87 120.55 L 378.97 120.83 L 343.04 120.83 L 343.18 150.35 L 302.36 135.43 L 329.87 94.16 L 397.52 94.16 Z" fill="#ffffff" fill-rule="evenodd" node-id="187" stroke="none" target-height="56.184" target-width="95.26349" target-x="302.35837" target-y="94.16326"></path></mask><mask height="1.2" id="mask-6" node-id="177" width="1.2" x="-0.1" y="-0.1"><path d="M 214.95 99.33 L 234.78 99.33 L 230.65 116.60 L 219.12 116.60 Z" fill="#ffffff" fill-rule="evenodd" node-id="194" stroke="none" target-height="17.26664" target-width="19.835754" target-x="214.94827" target-y="99.330444"></path></mask></defs><g node-id="501"><g node-id="502"><path d="M 407.44 123.64 L 407.18 121.60 L 406.45 119.80 L 405.31 118.25 L 403.83 117.06 L 402.09 116.28 L 400.13 116.00 L 74.07 116.00 L 72.63 116.16 L 71.26 116.59 L 70.01 117.30 L 68.89 118.26 L 67.98 119.42 L 67.31 120.73 L 66.90 122.15 L 66.76 123.65 L 66.76 328.59 L 407.44 328.59 L 407.44 123.64 Z" fill="#152a7c" fill-rule="nonzero" group-id="1,2" id="路径" node-id="13" stroke="none" target-height="212.58728" target-width="340.67416" target-x="66.764046" target-y="116"></path><path d="M 377.99 174.55 L 378.99 174.70 L 379.87 175.12 L 380.59 175.77 L 381.11 176.63 L 381.36 177.61 L 381.31 178.58 L 380.98 179.51 L 380.39 180.32 L 379.58 180.91 L 378.66 181.24 L 377.69 181.29 L 376.71 181.05 L 375.85 180.53 L 375.20 179.81 L 374.78 178.93 L 374.63 177.93 L 374.90 176.61 L 375.61 175.54 L 376.67 174.82 L 377.99 174.55 L 377.99 174.55 Z M 377.33 174.55 L 376.14 174.73 L 375.08 175.23 L 374.21 176.02 L 373.59 177.05 L 373.30 178.22 L 373.36 179.39 L 373.75 180.50 L 374.46 181.47 L 375.43 182.19 L 376.53 182.58 L 377.70 182.64 L 378.87 182.35 L 379.91 181.73 L 380.69 180.86 L 381.19 179.80 L 381.37 178.61 L 381.06 177.05 L 380.19 175.74 L 378.88 174.86 L 377.33 174.55 L 377.33 174.55 Z" fill="#ffffff" fill-rule="nonzero" group-id="1,2" id="形状" node-id="14" stroke="none" target-height="8.089615" target-width="8.071838" target-x="373.29895" target-y="174.55159"></path><g node-id="513"><g node-id="533"><path d="M 80.25 128.61 L 394.85 128.61 L 394.85 318.00 L 80.25 318.00 Z" fill="#ffffff" fill-rule="nonzero" group-id="1,2,13,33" id="path-1" node-id="7" stroke="none" target-height="189.38474" target-width="314.60675" target-x="80.24719" target-y="128.61111"></path></g></g><path d="M 435.38 324.98 L 436.41 325.19 L 437.23 325.75 L 437.79 326.57 L 438.00 327.58 L 438.00 333.99 L 437.67 336.40 L 436.76 338.54 L 435.34 340.36 L 433.50 341.77 L 431.35 342.67 L 428.92 343.00 L 47.08 343.00 L 44.65 342.67 L 42.50 341.77 L 40.66 340.36 L 39.24 338.54 L 38.33 336.40 L 38.00 333.99 L 38.00 327.58 L 38.21 326.57 L 38.77 325.75 L 39.59 325.19 L 40.62 324.98 L 195.63 324.99 L 196.37 326.43 L 197.51 327.57 L 198.94 328.31 L 200.62 328.59 L 200.62 328.59 L 276.69 328.59 L 278.37 328.31 L 279.81 327.57 L 280.94 326.43 L 281.68 324.99 L 435.38 324.98 Z" fill="#b4c3cb" fill-rule="evenodd" group-id="1,2" id="形状结合" node-id="22" stroke="none" target-height="18.01587" target-width="400" target-x="38" target-y="324.98413"></path></g><g node-id="503"><path d="M 95.00 135.00 L 142.53 135.00 L 142.53 180.80 L 95.00 180.80 Z" fill="#b8e1ff" fill-rule="nonzero" group-id="1,3" id="矩形" node-id="24" stroke="none" target-height="45.795914" target-width="47.534378" target-x="95" target-y="135"></path><path d="M 149.71 135.00 L 197.24 135.00 L 197.24 180.80 L 149.71 180.80 Z" fill="#b8e1ff" fill-rule="nonzero" group-id="1,3" id="矩形" node-id="25" stroke="none" target-height="45.795914" target-width="47.534363" target-x="149.70938" target-y="135"></path><g node-id="514"><path d="M 208.01 135.00 L 255.54 135.00 L 255.54 180.80 L 208.01 180.80 Z" fill="#b4bbbf" fill-opacity="0.1" fill-rule="nonzero" group-id="1,3,14" id="矩形" node-id="26" stroke="none" target-height="45.795914" target-width="47.534363" target-x="208.00626" target-y="135"></path></g><g node-id="515"><path d="M 267.20 135.00 L 317.43 135.00 L 317.43 180.80 L 267.20 180.80 Z" fill="#b4bbbf" fill-opacity="0.1" fill-rule="nonzero" group-id="1,3,15" id="矩形" node-id="27" stroke="none" target-height="45.795914" target-width="50.224976" target-x="267.2" target-y="135"></path></g><g node-id="516"><path d="M 334.47 135.00 L 382.00 135.00 L 382.00 180.80 L 334.47 180.80 Z" fill="#b4bbbf" fill-opacity="0.1" fill-rule="nonzero" group-id="1,3,16" id="矩形" node-id="28" stroke="none" target-height="45.795914" target-width="47.534363" target-x="334.46564" target-y="135"></path></g><path d="M 95.00 197.86 L 199.04 197.86 L 199.04 311.00 L 95.00 311.00 Z" fill="#b8e1ff" fill-rule="nonzero" group-id="1,3" id="矩形" node-id="29" stroke="none" target-height="113.14285" target-width="104.037506" target-x="95" target-y="197.85715"></path><path d="M 158.27 224.82 L 154.63 223.74 L 150.98 223.07 L 147.29 222.82 L 143.60 222.97 L 139.98 223.51 L 136.39 224.46 L 132.93 225.79 L 129.61 227.50 L 126.40 229.62 L 123.45 232.07 L 120.81 234.79 L 118.46 237.78 L 116.44 240.99 L 114.76 244.39 L 113.42 247.99 L 112.44 251.70 L 111.85 255.52 L 111.65 259.47 L 111.45 260.49 L 110.92 261.30 L 110.13 261.86 L 109.15 262.07 L 108.18 261.86 L 107.39 261.30 L 106.86 260.49 L 106.66 259.47 L 106.89 254.97 L 107.57 250.62 L 108.67 246.39 L 110.20 242.29 L 112.11 238.42 L 114.41 234.75 L 117.08 231.34 L 120.08 228.24 L 123.44 225.44 L 127.08 223.02 L 130.87 221.05 L 134.80 219.53 L 138.88 218.44 L 143.01 217.80 L 147.22 217.61 L 151.41 217.89 L 155.58 218.63 L 159.73 219.84" fill="#0092ff" fill-rule="nonzero" group-id="1,3,17" id="路径" node-id="31" stroke="none" target-height="44.451813" target-width="53.07527" target-x="106.65938" target-y="217.61441"></path><path d="M 158.99 220.02 L 163.55 221.75 L 167.75 223.85 L 171.63 226.29 L 175.20 229.10 L 178.49 232.27 L 181.37 235.68 L 183.86 239.33 L 185.97 243.25 L 187.66 247.36 L 188.87 251.61 L 189.62 256.01 L 189.89 260.60 L 189.67 261.64 L 189.06 262.49 L 188.17 263.05 L 187.06 263.27 L 185.94 263.05 L 185.05 262.49 L 184.44 261.64 L 184.22 260.60 L 183.98 256.60 L 183.33 252.76 L 182.28 249.05 L 180.81 245.46 L 178.98 242.04 L 176.81 238.85 L 174.30 235.87 L 171.44 233.09 L 168.33 230.63 L 164.95 228.49 L 161.29 226.65 L 157.32 225.12" fill="#ffffff" fill-rule="nonzero" group-id="1,3,17" id="路径" node-id="32" stroke="none" target-height="43.252502" target-width="32.56891" target-x="157.32214" target-y="220.01517"></path><path d="M 209.80 197.86 L 381.10 197.86 L 381.10 311.00 L 209.80 311.00 Z" fill="#b8e1ff" fill-rule="nonzero" group-id="1,3" id="矩形" node-id="33" stroke="none" target-height="113.14285" target-width="171.30312" target-x="209.8" target-y="197.85715"></path><path d="M 230.43 276.88 L 236.71 276.88 L 236.71 299.33 L 230.43 299.33 Z" fill="#ffffff" fill-rule="nonzero" group-id="1,3" id="矩形" node-id="34" stroke="none" target-height="22.448975" target-width="6.278122" target-x="230.42813" target-y="276.87756"></path><path d="M 125.51 275.35 L 125.51 282.56 L 104.79 282.56 L 104.79 275.35 Z" fill="#ffffff" fill-rule="nonzero" group-id="1,3,18" id="矩形复制-3" node-id="35" stroke="none" target-height="7.2095337" target-width="20.72229" target-x="104.787704" target-y="275.34573"></path><path d="M 239.40 249.94 L 245.68 249.94 L 245.68 298.43 L 239.40 298.43 Z" fill="#ffffff" fill-rule="nonzero" group-id="1,3" id="矩形" node-id="36" stroke="none" target-height="48.489807" target-width="6.278122" target-x="239.39688" target-y="249.93878"></path><path d="M 153.55 287.36 L 153.55 294.57 L 106.01 294.57 L 106.01 287.36 Z" fill="#ffffff" fill-rule="nonzero" group-id="1,3,19" id="矩形复制-4" node-id="37" stroke="none" target-height="7.2095337" target-width="47.539368" target-x="106.00664" target-y="287.36163"></path><path d="M 265.41 211.33 L 271.68 211.33 L 271.68 298.43 L 265.41 298.43 Z" fill="#ffffff" fill-rule="nonzero" group-id="1,3" id="矩形" node-id="38" stroke="none" target-height="87.10205" target-width="6.278137" target-x="265.40625" target-y="211.32654"></path><path d="M 253.75 211.33 L 260.02 211.33 L 260.02 298.43 L 253.75 298.43 Z" fill="#0092ff" fill-rule="nonzero" group-id="1,3" id="矩形" node-id="39" stroke="none" target-height="87.10205" target-width="6.278122" target-x="253.74687" target-y="211.32654"></path><path d="M 280.65 249.94 L 286.93 249.94 L 286.93 298.43 L 280.65 298.43 Z" fill="#0092ff" fill-rule="nonzero" group-id="1,3" id="矩形" node-id="40" stroke="none" target-height="48.489807" target-width="6.2781067" target-x="280.65314" target-y="249.93878"></path><path d="M 289.62 236.47 L 295.90 236.47 L 295.90 299.33 L 289.62 299.33 Z" fill="#ffffff" fill-rule="nonzero" group-id="1,3" id="矩形" node-id="41" stroke="none" target-height="62.857147" target-width="6.2781067" target-x="289.6219" target-y="236.46939"></path><path d="M 302.18 215.82 L 308.46 215.82 L 308.46 298.43 L 302.18 298.43 Z" fill="#ffffff" fill-rule="nonzero" group-id="1,3" id="矩形" node-id="42" stroke="none" target-height="82.61226" target-width="6.2781067" target-x="302.17813" target-y="215.81633"></path><path d="M 313.84 262.51 L 320.12 262.51 L 320.12 298.43 L 313.84 298.43 Z" fill="#ffc82c" fill-rule="nonzero" group-id="1,3" id="矩形" node-id="43" stroke="none" target-height="35.918396" target-width="6.278137" target-x="313.8375" target-y="262.5102"></path><path d="M 328.19 247.24 L 334.47 247.24 L 334.47 298.43 L 328.19 298.43 Z" fill="#ffc82c" fill-rule="nonzero" group-id="1,3" id="矩形" node-id="44" stroke="none" target-height="51.183685" target-width="6.278137" target-x="328.1875" target-y="247.2449"></path><path d="M 339.85 228.39 L 346.12 228.39 L 346.12 298.43 L 339.85 298.43 Z" fill="#ffc82c" fill-rule="nonzero" group-id="1,3" id="矩形" node-id="45" stroke="none" target-height="70.04083" target-width="6.278137" target-x="339.84686" target-y="228.38776"></path><path d="M 350.61 228.39 L 356.89 228.39 L 356.89 298.43 L 350.61 298.43 Z" fill="#ffc82c" fill-rule="nonzero" group-id="1,3" id="矩形" node-id="46" stroke="none" target-height="70.04083" target-width="6.278137" target-x="350.60938" target-y="228.38776"></path><path d="M 164.96 147.57 L 186.27 147.57 L 186.27 166.92 L 164.96 166.92 Z" fill="#000000" fill-opacity="0" fill-rule="nonzero" group-id="1,3,20,34" id="矩形" node-id="48" stroke="none" target-height="19.343903" target-width="21.312836" target-x="164.95625" target-y="147.57143"></path><path d="M 171.73 161.00 L 171.91 159.62 L 172.40 158.40 L 173.21 157.29 L 172.89 157.29 L 169.99 157.13 L 168.01 156.76 L 166.35 156.11 L 165.27 155.39 L 165.04 155.75 L 164.96 156.19 L 164.96 158.29 L 165.13 158.91 L 165.67 159.50 L 166.76 160.10 L 168.72 160.66 L 171.73 161.00 Z M 171.84 162.10 L 169.43 161.88 L 167.73 161.49 L 166.29 160.87 L 165.38 160.20 L 165.04 160.62 L 164.96 161.00 L 164.96 163.10 L 165.15 163.75 L 165.76 164.36 L 167.02 164.97 L 169.29 165.48 L 172.89 165.71 L 174.38 165.71 L 173.13 164.76 L 172.30 163.58 L 171.84 162.10 Z M 172.79 155.69 L 176.39 155.46 L 178.89 154.91 L 180.34 154.28 L 181.03 153.68 L 181.25 153.09 L 181.25 151.38 L 181.03 150.75 L 180.33 150.14 L 178.89 149.52 L 176.39 149.00 L 172.79 148.78 L 169.26 149.02 L 167.01 149.56 L 165.75 150.18 L 165.14 150.78 L 164.96 151.38 L 164.96 152.99 L 165.15 153.64 L 165.78 154.27 L 167.05 154.90 L 169.31 155.45 L 172.79 155.69 Z M 178.93 159.10 L 177.23 159.10 L 177.23 161.00 L 178.93 161.00 L 179.73 160.84 L 180.10 160.51 L 180.20 160.00 L 179.88 159.43 L 179.55 159.21 L 178.93 159.10 L 178.93 159.10 Z" fill="#ffffff" fill-rule="nonzero" group-id="1,3,20" id="形状" node-id="49" stroke="none" target-height="16.925903" target-width="16.29805" target-x="164.95625" target-y="148.78043"></path><path d="M 177.49 156.03 L 176.15 156.22 L 174.99 156.68 L 173.97 157.43 L 173.17 158.41 L 172.68 159.54 L 172.48 160.87 L 172.67 162.20 L 173.15 163.33 L 173.93 164.31 L 174.93 165.06 L 176.10 165.52 L 177.49 165.71 L 178.88 165.52 L 180.05 165.06 L 181.06 164.31 L 181.84 163.33 L 182.32 162.20 L 182.51 160.87 L 182.31 159.54 L 181.82 158.41 L 181.02 157.43 L 180.00 156.68 L 178.84 156.22 L 177.49 156.03 Z M 178.85 161.88 L 176.87 161.88 L 176.87 164.60 L 175.82 164.60 L 175.82 158.15 L 178.85 158.15 L 179.34 158.20 L 180.04 158.46 L 180.57 158.99 L 180.84 160.06 L 180.58 161.23 L 180.08 161.69 L 178.85 161.88 Z" fill="#ffffff" fill-rule="nonzero" group-id="1,3,20" id="形状" node-id="50" stroke="none" target-height="9.671951" target-width="10.029572" target-x="172.47842" target-y="156.03438"></path><path d="M 107.56 149.37 L 128.87 149.37 L 128.87 168.71 L 107.56 168.71 Z" fill="#000000" fill-opacity="0" fill-rule="nonzero" group-id="1,3,21,35" id="矩形" node-id="52" stroke="none" target-height="19.343903" target-width="21.312828" target-x="107.55625" target-y="149.36734"></path><path d="M 120.08 163.37 L 119.33 163.72 L 118.77 163.84 L 118.24 163.79 L 117.70 163.57 L 116.16 162.88 L 113.57 161.76 L 111.14 160.70 L 110.06 160.24 L 110.06 162.39 L 110.18 162.64 L 110.79 162.98 L 112.81 163.90 L 115.75 165.17 L 117.70 166.02 L 118.81 166.29 L 119.34 166.17 L 120.08 165.82 L 122.10 164.86 L 124.94 163.59 L 126.89 162.69 L 127.50 162.25 L 127.62 162.00 L 127.62 159.84 L 126.58 160.35 L 124.23 161.43 L 121.69 162.59 L 120.08 163.37 Z M 120.08 160.33 L 119.33 160.68 L 118.77 160.80 L 118.24 160.75 L 117.70 160.53 L 116.16 159.84 L 113.57 158.72 L 111.14 157.66 L 110.06 157.20 L 110.06 159.35 L 110.18 159.60 L 110.79 159.94 L 112.81 160.86 L 115.75 162.13 L 117.70 162.98 L 118.81 163.25 L 119.34 163.13 L 120.08 162.79 L 122.10 161.82 L 124.94 160.55 L 126.89 159.65 L 127.50 159.21 L 127.62 158.96 L 127.62 156.90 L 126.58 157.37 L 124.23 158.44 L 121.69 159.59 L 120.08 160.33 Z M 127.62 154.06 L 127.49 153.81 L 126.89 153.57 L 124.95 152.77 L 122.16 151.62 L 120.28 150.83 L 119.14 150.58 L 117.91 150.92 L 115.79 151.75 L 112.77 152.94 L 110.79 153.77 L 110.18 154.10 L 110.06 154.35 L 110.06 156.51 L 111.14 156.98 L 113.57 158.04 L 116.16 159.20 L 117.70 159.94 L 118.81 160.21 L 119.34 160.10 L 120.08 159.75 L 121.69 158.95 L 124.23 157.76 L 126.58 156.69 L 127.62 156.22 L 127.62 154.06 Z M 125.34 154.16 L 122.66 155.24 L 120.28 154.26 L 122.97 153.08 L 125.34 154.16 L 125.34 154.16 Z M 120.39 155.14 L 119.15 157.00 L 116.36 155.83 L 120.39 155.14 L 120.39 155.14 Z M 118.32 152.30 L 117.91 151.51 L 119.15 152.00 L 120.28 151.61 L 119.98 152.39 L 121.11 152.88 L 119.56 153.08 L 119.25 153.96 L 118.74 152.98 L 116.98 152.79 L 118.32 152.30 L 118.32 152.30 Z M 115.23 153.37 L 116.77 153.63 L 117.25 153.94 L 117.39 154.26 L 117.25 154.58 L 116.77 154.88 L 115.23 155.14 L 113.68 154.88 L 113.20 154.58 L 113.06 154.26 L 113.21 153.94 L 113.72 153.63 L 115.23 153.37 L 115.23 153.37 Z" fill="#ffffff" fill-rule="nonzero" group-id="1,3,21" id="形状" node-id="53" stroke="none" target-height="15.708664" target-width="17.551743" target-x="110.063644" target-y="150.58089"></path><path d="M 223.25 147.57 L 244.57 147.57 L 244.57 166.92 L 223.25 166.92 Z" fill="#000000" fill-opacity="0" fill-rule="nonzero" group-id="1,3,22,36" id="矩形" node-id="55" stroke="none" target-height="19.343903" target-width="21.312836" target-x="223.25313" target-y="147.57143"></path><path d="M 232.23 153.41 L 239.55 153.41 L 239.55 152.81 L 239.51 152.64 L 238.81 151.55 L 237.80 150.71 L 236.58 150.18 L 235.18 149.99 L 233.88 150.16 L 232.73 150.62 L 231.76 151.36 L 231.03 152.32 L 230.31 152.03 L 229.50 151.93 L 228.35 152.14 L 227.43 152.70 L 226.81 153.54 L 226.57 154.57 L 226.60 154.88 L 225.74 155.36 L 225.08 156.02 L 224.66 156.83 L 224.51 157.74 L 224.78 158.96 L 225.52 159.95 L 226.61 160.62 L 227.97 160.87 L 230.66 160.87 L 230.66 160.40 L 230.66 154.81 L 230.78 154.26 L 231.11 153.82 L 231.61 153.52 L 232.23 153.41 Z" fill="#91a4ed" fill-rule="nonzero" group-id="1,3,22" id="路径" node-id="56" stroke="none" target-height="10.880951" target-width="15.044357" target-x="224.50682" target-y="149.98941"></path><path d="M 241.99 154.83 L 233.35 154.83 L 232.83 154.92 L 232.42 155.18 L 232.13 155.57 L 232.03 156.04 L 232.03 162.08 L 232.13 162.55 L 232.42 162.93 L 232.83 163.19 L 233.35 163.29 L 241.99 163.29 L 242.51 163.19 L 242.92 162.93 L 243.21 162.55 L 243.31 162.08 L 243.31 156.04 L 243.21 155.57 L 242.92 155.18 L 242.51 154.92 L 241.99 154.83 Z M 234.58 156.71 L 235.60 156.71 L 235.97 156.85 L 236.12 157.18 L 235.97 157.51 L 235.60 157.65 L 234.58 157.65 L 234.21 157.51 L 234.06 157.18 L 234.21 156.85 L 234.58 156.71 Z M 235.60 161.41 L 234.58 161.41 L 234.21 161.27 L 234.06 160.94 L 234.21 160.61 L 234.58 160.47 L 235.60 160.47 L 235.97 160.61 L 236.12 160.94 L 235.97 161.27 L 235.60 161.41 Z M 241.80 159.53 L 233.54 159.53 L 233.20 159.39 L 233.05 159.06 L 233.20 158.72 L 233.54 158.59 L 241.80 158.59 L 242.15 158.72 L 242.29 159.06 L 242.15 159.39 L 241.80 159.53 L 241.80 159.53 Z" fill="#91a4ed" fill-rule="nonzero" group-id="1,3,22" id="形状" node-id="57" stroke="none" target-height="8.462952" target-width="11.283264" target-x="232.029" target-y="154.8254"></path><path d="M 283.34 147.57 L 304.66 147.57 L 304.66 166.92 L 283.34 166.92 Z" fill="#000000" fill-opacity="0" fill-rule="nonzero" group-id="1,3,23,37" id="矩形" node-id="59" stroke="none" target-height="19.343903" target-width="21.312836" target-x="283.34375" target-y="147.57143"></path><path d="M 290.87 157.24 L 292.12 157.24 L 291.45 154.83 Z" fill="#91a4ed" fill-rule="nonzero" group-id="1,3,23" id="路径" node-id="60" stroke="none" target-height="2.417984" target-width="1.2536926" target-x="290.86594" target-y="154.8254"></path><path d="M 302.03 152.92 L 294.36 148.94 L 294.04 148.78 L 293.73 148.84 L 286.06 152.92 L 285.85 153.30 L 285.85 161.25 L 286.06 161.63 L 293.73 165.61 L 293.94 165.71 L 294.04 165.69 L 294.15 165.61 L 301.82 161.63 L 302.03 161.25 L 302.03 153.30 L 302.14 153.02 L 302.03 152.92 Z M 293.83 160.12 L 293.52 159.93 L 292.89 158.51 L 290.37 158.51 L 289.74 159.93 L 289.32 160.12 L 289.11 160.12 L 288.79 159.93 L 288.79 159.55 L 291.10 154.43 L 291.42 154.34 L 291.63 154.34 L 291.94 154.53 L 294.04 159.07 L 297.30 155.19 L 294.36 155.19 L 294.07 155.07 L 293.94 154.81 L 293.94 154.62 L 294.07 154.36 L 294.36 154.24 L 298.25 154.24 L 298.54 154.36 L 298.67 154.62 L 298.67 154.81 L 298.56 155.00 L 295.10 159.17 L 298.46 159.17 L 298.75 159.29 L 298.88 159.55 L 298.88 159.74 L 298.75 160.00 L 298.46 160.12 L 294.15 160.12 L 294.04 160.12 L 293.83 160.12 L 293.83 160.12 Z" fill="#91a4ed" fill-rule="nonzero" group-id="1,3,23" id="形状" node-id="61" stroke="none" target-height="16.923798" target-width="16.293732" target-x="285.85114" target-y="148.78253"></path><path d="M 347.92 147.57 L 369.23 147.57 L 369.23 166.92 L 347.92 166.92 Z" fill="#000000" fill-opacity="0" fill-rule="nonzero" group-id="1,3,24,38" id="矩形" node-id="63" stroke="none" target-height="19.343903" target-width="21.312836" target-x="347.91876" target-y="147.57143"></path><path d="M 363.28 163.55 L 353.87 163.55 L 353.49 163.68 L 353.35 164.02 L 353.49 164.36 L 353.87 164.50 L 363.28 164.50 L 363.66 164.36 L 363.80 164.02 L 363.66 163.68 L 363.28 163.55 Z M 366.41 151.20 L 350.74 151.20 L 350.14 151.32 L 349.64 151.63 L 349.30 152.08 L 349.17 152.62 L 349.17 161.17 L 349.30 161.71 L 349.64 162.17 L 350.14 162.48 L 350.74 162.60 L 366.41 162.60 L 367.01 162.48 L 367.51 162.17 L 367.85 161.71 L 367.98 161.17 L 367.98 152.62 L 367.85 152.08 L 367.51 151.63 L 367.01 151.32 L 366.41 151.20 Z M 358.99 160.51 L 358.58 160.70 L 358.16 160.41 L 356.38 157.28 L 353.25 160.70 L 352.83 160.89 L 352.52 160.79 L 352.34 160.45 L 352.41 160.13 L 356.07 156.23 L 356.30 155.98 L 356.59 155.95 L 357.01 156.23 L 358.78 159.37 L 363.17 154.52 L 361.29 154.52 L 360.81 154.38 L 360.66 154.05 L 360.80 153.71 L 361.19 153.57 L 364.32 153.57 L 364.70 153.71 L 364.84 154.05 L 364.84 156.90 L 364.70 157.24 L 364.32 157.37 L 363.94 157.24 L 363.80 156.90 L 363.80 155.28 L 358.99 160.51 Z" fill="#91a4ed" fill-rule="nonzero" group-id="1,3,24" id="形状" node-id="64" stroke="none" target-height="13.298935" target-width="18.80545" target-x="349.17245" target-y="151.19841"></path><path d="M 153.30 236.47 L 145.43 248.35 L 141.99 254.12 L 140.97 256.39 L 140.75 257.98 L 140.92 259.42 L 141.49 260.74 L 142.39 261.87 L 143.58 262.68 L 145.13 263.19 L 146.80 263.40 L 148.31 263.23 L 149.73 262.69 L 150.97 261.82 L 151.90 260.68 L 152.56 259.22 L 153.30 236.47 Z" fill="#0092ff" fill-rule="nonzero" group-id="1,3" id="路径" node-id="65" stroke="none" target-height="26.933624" target-width="12.550903" target-x="140.74597" target-y="236.46939"></path></g><g node-id="504"><path d="M 38.00 50.56 L 75.27 50.56 L 75.27 87.00 L 38.00 87.00 Z" fill="#ffc82c" fill-rule="evenodd" group-id="1,4" id="矩形" node-id="67" stroke="none" target-height="36.444443" target-width="37.272728" target-x="38" target-y="50.555557"></path><path d="M 41.23 47.50 L 77.50 47.50 L 77.50 82.94 L 41.23 82.94 Z" fill="none" group-id="1,4" id="矩形" node-id="68" stroke="#13161a" stroke-linecap="butt" stroke-width="1" target-height="35.444443" target-width="36.272728" target-x="41.227272" target-y="47.5"></path></g><g node-id="505"><path d="M 63.00 71.56 L 100.27 71.56 L 100.27 108.00 L 63.00 108.00 Z" fill="#0092ff" fill-rule="evenodd" group-id="1,5" id="矩形-copy-17" node-id="70" stroke="none" target-height="36.444443" target-width="37.272728" target-x="63" target-y="71.55556"></path><path d="M 66.23 68.50 L 102.50 68.50 L 102.50 103.94 L 66.23 103.94 Z" fill="none" group-id="1,5" id="矩形-copy-18" node-id="71" stroke="#13161a" stroke-linecap="butt" stroke-width="1" target-height="35.444443" target-width="36.272728" target-x="66.22727" target-y="68.5"></path></g><g node-id="506"><g node-id="525"><path d="M 320.27 118.10 L 296.57 148.80 L 306.29 159.03 L 331.14 120.16 Z" fill="#ffc1c7" fill-rule="evenodd" group-id="1,6,25" id="路径-9-copy-10" node-id="74" stroke="none" target-height="40.929" target-width="34.574097" target-x="296.56937" target-y="118.10402"></path><path d="M 284.79 149.28 L 303.86 164.18" fill="none" group-id="1,6,25" id="路径-17-copy-7" node-id="75" stroke="#13161a" stroke-linecap="butt" stroke-width="1" target-height="14.899445" target-width="19.072235" target-x="284.79242" target-y="149.28285"></path><path d="M 296.82 148.02 L 301.54 151.85 L 308.97 157.57 L 304.23 163.67 L 285.14 148.65 L 287.57 147.59 L 289.91 147.02 L 292.20 146.91 L 294.49 147.23 L 296.82 148.02 Z" fill="#0092ff" fill-rule="evenodd" group-id="1,6,25" id="矩形-copy-9" node-id="76" stroke="none" target-height="16.7585" target-width="23.828491" target-x="285.14084" target-y="146.9076"></path><path d="M 297.27 147.54 L 309.25 157.07" fill="none" group-id="1,6,25" id="路径-16-copy-7" node-id="77" stroke="#13161a" stroke-linecap="butt" stroke-width="1" target-height="9.526321" target-width="11.981232" target-x="297.2654" target-y="147.54169"></path></g><g node-id="526"><path d="M 293.29 105.27 L 254.55 103.46 L 251.74 117.29 L 297.84 115.35 Z" fill="#ffc1c7" fill-rule="evenodd" group-id="1,6,26" id="路径-9-copy-10" node-id="79" stroke="none" target-height="13.830086" target-width="46.100525" target-x="251.73962" target-y="103.45622"></path><path d="M 247.40 94.09 L 246.13 118.26" fill="none" group-id="1,6,26" id="路径-17-copy-7" node-id="80" stroke="#13161a" stroke-linecap="butt" stroke-width="1" target-height="24.16903" target-width="1.2655334" target-x="246.1329" target-y="94.08757"></path><path d="M 255.33 103.21 L 254.90 109.28 L 254.48 118.64 L 246.77 118.26 L 248.11 94.01 L 250.37 95.39 L 252.18 96.98 L 253.59 98.80 L 254.64 100.86 L 255.33 103.21 Z" fill="#0092ff" fill-rule="evenodd" group-id="1,6,26" id="矩形-copy-9" node-id="81" stroke="none" target-height="24.632011" target-width="8.566803" target-x="246.76794" target-y="94.01246"></path><path d="M 255.98 103.31 L 255.05 118.58" fill="none" group-id="1,6,26" id="路径-16-copy-7" node-id="82" stroke="#13161a" stroke-linecap="butt" stroke-width="1" target-height="15.278526" target-width="0.93136597" target-x="255.04758" target-y="103.30615"></path></g><path d="M 362.59 115.64 L 279.04 117.51 L 270.87 93.27 L 357.62 95.03 Z" fill="#0092ff" fill-rule="evenodd" group-id="1,6" id="路径-118" node-id="83" stroke="none" target-height="24.244896" target-width="91.714264" target-x="270.87396" target-y="93.265305"></path><path d="M 397.52 94.16 L 397.62 100.04 L 397.17 104.90 L 396.25 108.88 L 394.95 112.13 L 393.30 114.77 L 391.30 116.89 L 388.94 118.55 L 386.16 119.77 L 382.87 120.55 L 378.97 120.83 L 343.04 120.83 L 343.18 150.35 L 302.36 135.43 L 329.87 94.16 L 397.52 94.16 Z" fill="#0092ff" fill-rule="evenodd" group-id="1,6,27,39" node-id="315" stroke="none" target-height="56.184" target-width="95.26349" target-x="302.35837" target-y="94.16326"></path><path d="M 326.18 95.75 L 326.44 97.56 L 327.08 99.11 L 328.11 100.46 L 329.45 101.51 L 330.98 102.16 L 332.77 102.42 L 334.55 102.16 L 336.08 101.51 L 337.42 100.46 L 338.45 99.11 L 339.10 97.56 L 339.35 95.75 L 339.10 93.94 L 338.45 92.39 L 337.42 91.04 L 336.08 89.99 L 334.55 89.34 L 332.77 89.08 L 330.98 89.34 L 329.45 89.99 L 328.11 91.04 L 327.08 92.39 L 326.44 93.94 L 326.18 95.75 Z" fill="#ffc82c" fill-rule="evenodd" group-id="1,6,27,40" node-id="320" stroke="none" target-height="13.331795" target-width="13.166046" target-x="326.18265" target-y="89.08448"></path><path d="M 318.17 30.22 L 313.82 27.89 L 310.94 26.87 L 309.11 26.70 L 307.95 27.07 L 307.23 27.86 L 306.86 29.23 L 306.94 30.82 L 307.48 32.40 L 308.54 34.01 L 310.25 35.69 L 312.78 37.47 L 316.34 39.34 L 318.17 30.22 Z" fill="#ffc1c7" fill-rule="evenodd" group-id="1,6,28" id="路径-12-copy-7" node-id="90" stroke="none" target-height="12.633682" target-width="11.310486" target-x="306.86276" target-y="26.703037"></path><path d="M 315.22 27.32 L 315.46 39.97" fill="none" group-id="1,6,28" id="路径-20-copy-5" node-id="91" stroke="#13161a" stroke-linecap="butt" stroke-width="1" target-height="12.65044" target-width="0.23895264" target-x="315.22055" target-y="27.318802"></path><path d="M 370.13 41.14 L 368.69 42.54 L 367.38 44.69 L 366.22 47.84 L 364.06 57.09 L 355.56 96.90 L 398.60 96.90 L 398.39 78.76 L 397.84 65.74 L 397.08 56.77 L 396.20 50.91 L 395.30 47.33 L 394.43 45.35 L 392.94 43.36 L 391.05 41.70 L 388.70 40.34 L 385.80 39.30 L 382.25 38.62 L 377.92 38.37 L 370.13 41.14 Z" fill="#ffc82c" fill-rule="evenodd" group-id="1,6,28" id="路径-4-copy" node-id="92" stroke="none" target-height="58.52245" target-width="43.03894" target-x="355.56155" target-y="38.373775"></path><path d="M 368.28 54.64 L 371.06 41.66 L 343.02 47.62 L 315.65 27.32 L 315.65 60.72 L 346.05 63.37 Z" fill="#ffc82c" fill-rule="evenodd" group-id="1,6,28" id="路径-37" node-id="93" stroke="none" target-height="36.053757" target-width="55.405426" target-x="315.65482" target-y="27.318802"></path><path d="M 360.98 86.12 L 353.67 86.21 L 348.94 86.68 L 346.06 87.36 L 344.47 88.15 L 343.71 88.98 L 343.51 89.87 L 343.82 90.96 L 344.78 92.30 L 346.17 93.36 L 348.10 94.14 L 350.73 94.59 L 354.27 94.60 L 358.96 94.03 L 360.98 86.12 Z" fill="#ffc1c7" fill-rule="evenodd" group-id="1,6,28,41,54,71" id="路径-12-copy-5" node-id="96" stroke="none" target-height="8.481422" target-width="17.4693" target-x="343.50598" target-y="86.12194"></path><path d="M 357.47 84.26 L 353.97 96.67" fill="none" group-id="1,6,28,41,54" id="路径-20-copy-4" node-id="97" stroke="#13161a" stroke-linecap="butt" stroke-width="1" target-height="12.414963" target-width="3.499237" target-x="353.97305" target-y="84.2583"></path><path d="M 389.59 40.77 L 392.04 44.25 L 393.98 47.80 L 395.43 51.44 L 396.41 55.19 L 396.93 59.09 L 396.97 62.70 L 396.55 67.68 L 395.52 74.36 L 393.69 83.11 L 390.87 94.34 L 353.39 102.60 L 360.00 77.02 L 381.54 80.65 L 382.88 60.58 L 383.98 50.24 L 384.83 45.84 L 385.73 43.40 L 386.66 41.90 L 387.59 41.07 L 388.54 40.71 L 389.59 40.77 Z" fill="#ffc82c" fill-rule="evenodd" group-id="1,6,28,41" id="路径-38" node-id="98" stroke="none" target-height="61.8869" target-width="43.58136" target-x="353.39017" target-y="40.713326"></path><path d="M 377.62 59.31 L 374.69 82.49 L 357.70 83.45" fill="none" group-id="1,6,28,41,55" id="路径-47" node-id="99" stroke="#13161a" stroke-linecap="butt" stroke-width="1" target-height="24.132072" target-width="19.917572" target-x="357.69867" target-y="59.313713"></path><path d="M 387.09 80.75 L 382.15 96.69" fill="none" group-id="1,6,28,41" id="路径-2" node-id="100" stroke="#13161a" stroke-linecap="butt" stroke-width="0.99999994" target-height="15.939476" target-width="4.9398804" target-x="382.14853" target-y="80.74771"></path><path d="M 385.94 39.17 L 385.88 39.72 L 385.32 41.16 L 384.31 42.21 L 382.98 42.81 L 381.45 42.86 L 380.03 42.30 L 378.99 41.28 L 378.40 39.94 L 378.37 38.40 L 378.50 37.86 L 378.53 37.46 L 379.18 33.81 L 379.47 33.06 L 380.00 32.52 L 380.69 32.21 L 381.49 32.19 L 385.07 32.82 L 385.81 33.11 L 386.36 33.64 L 386.67 34.33 L 386.69 35.13 L 386.04 38.79 L 385.94 39.17 Z" fill="#ffc1c7" fill-rule="evenodd" group-id="1,6,28,42,56" id="合并形状-copy-6" node-id="102" stroke="none" target-height="10.671951" target-width="8.322449" target-x="378.36578" target-y="32.18601"></path><path d="M 378.49 41.40 L 382.07 42.77 L 383.57 42.98 L 384.70 42.62 L 385.27 42.09 L 385.80 41.12 L 386.24 39.51" fill="none" group-id="1,6,28,42" id="路径-11-copy-3" node-id="103" stroke="#13161a" stroke-linecap="butt" stroke-width="1" target-height="3.4690933" target-width="7.7569885" target-x="378.48715" target-y="39.50665"></path><path d="M 398.45 24.82 L 397.77 27.30 L 396.74 29.50 L 395.35 31.46 L 393.65 33.16 L 391.73 34.52 L 389.57 35.56 L 387.27 36.20 L 384.88 36.43 L 382.34 36.23 L 379.89 35.55 L 377.72 34.52 L 375.78 33.12 L 374.10 31.41 L 372.76 29.48 L 371.75 27.30 L 371.11 24.98 L 370.90 22.56 L 371.11 20.00 L 371.79 17.52 L 372.82 15.32 L 374.21 13.35 L 375.91 11.65 L 377.83 10.30 L 379.98 9.26 L 382.28 8.61 L 384.68 8.39 L 387.21 8.59 L 389.67 9.27 L 391.84 10.30 L 393.78 11.70 L 395.46 13.40 L 396.79 15.34 L 397.81 17.52 L 398.44 19.83 L 398.66 22.26 L 398.45 24.82 Z" fill="#2f2e41" fill-rule="nonzero" group-id="1,6,28,42,57" id="椭圆形" node-id="105" stroke="none" target-height="28.043633" target-width="27.760406" target-x="370.89853" target-y="8.387284"></path><path d="M 394.63 25.97 L 394.02 28.21 L 393.09 30.19 L 391.84 31.95 L 390.31 33.49 L 388.58 34.71 L 386.64 35.64 L 384.57 36.22 L 382.42 36.43 L 380.13 36.24 L 377.93 35.63 L 375.97 34.70 L 374.22 33.45 L 372.72 31.91 L 371.51 30.17 L 370.60 28.21 L 370.03 26.12 L 369.83 23.94 L 370.02 21.64 L 370.63 19.40 L 371.56 17.42 L 372.81 15.66 L 374.34 14.13 L 376.07 12.90 L 378.01 11.97 L 380.08 11.39 L 382.24 11.19 L 384.52 11.37 L 386.73 11.98 L 388.68 12.91 L 390.43 14.16 L 391.94 15.70 L 393.14 17.44 L 394.05 19.40 L 394.62 21.49 L 394.82 23.67 L 394.63 25.97 Z" fill="#ffc1c7" fill-rule="nonzero" group-id="1,6,28,42,57" id="椭圆形" node-id="106" stroke="none" target-height="25.239407" target-width="24.984497" target-x="369.83383" target-y="11.185861"></path><path d="M 390.33 32.76 L 388.19 34.00 L 386.00 34.82 L 383.72 35.24 L 381.40 35.28 L 379.16 34.94 L 376.96 34.22 L 374.91 33.14 L 373.06 31.71 L 371.39 29.89 L 372.94 31.93 L 374.76 33.59 L 376.85 34.90 L 379.15 35.82 L 381.55 36.31 L 384.10 36.36 L 386.87 35.87 L 389.42 34.86 L 391.72 33.36 L 393.70 31.44 L 394.86 29.85 L 395.80 28.08 L 396.63 25.63 L 397.00 23.18 L 396.93 20.69 L 396.42 18.24 L 395.50 15.95 L 394.14 13.77 L 395.25 15.98 L 395.95 18.23 L 396.25 20.55 L 396.17 22.89 L 395.72 25.14 L 394.89 27.33 L 393.72 29.35 L 392.21 31.16 L 390.33 32.76 Z" fill="#000000" fill-opacity="0.1" fill-rule="nonzero" group-id="1,6,28,42,57,72" id="路径" node-id="107" stroke="none" target-height="22.588428" target-width="25.610382" target-x="371.38718" target-y="13.773736"></path><path d="M 381.15 26.31 L 381.86 25.48 L 382.52 24.44 L 382.88 23.56 L 382.97 22.76 L 382.76 22.35 L 382.31 22.26 L 381.57 22.57 L 380.83 23.15 L 380.02 24.08 L 379.97 24.14 L 378.42 22.62 L 377.24 20.79 L 376.44 18.77 L 376.03 16.68 L 376.01 14.59 L 376.40 12.71 L 376.99 11.62 L 377.84 10.78 L 378.99 10.15 L 380.95 9.54 L 383.09 9.20 L 386.87 8.79 L 388.19 8.90 L 389.23 9.56 L 391.20 11.96 L 392.39 13.34 L 394.06 14.75 L 395.19 15.94 L 395.89 17.55 L 396.18 19.38 L 396.17 21.41 L 395.92 23.44 L 395.53 25.30 L 394.57 28.19 L 393.48 30.17 L 392.34 31.37 L 391.15 31.99 L 389.83 32.12 L 388.86 31.90 L 387.30 31.29 L 385.69 30.44 L 383.97 29.28 L 382.41 27.89 L 381.15 26.31 Z" fill="#2f2e41" fill-rule="nonzero" group-id="1,6,28,42,58" id="合并形状" node-id="109" stroke="none" target-height="23.32132" target-width="20.166534" target-x="376.01477" target-y="8.794358"></path><path d="M 393.25 14.57 L 396.22 10.42 L 399.30 7.11 L 402.51 4.54 L 405.84 2.64 L 409.35 1.34 L 413.08 0.63 L 417.08 0.52 L 424.12 1.09 L 430.01 2.07 L 433.75 3.06 L 437.13 4.32 L 440.20 5.84 L 443.06 7.70 L 445.75 9.96 L 448.29 12.64 L 449.90 14.95 L 451.02 17.36 L 451.68 19.91 L 451.91 22.53 L 451.70 25.01 L 451.06 27.39 L 450.00 29.59 L 448.53 31.44 L 446.64 32.98 L 444.46 34.03 L 441.83 34.58 L 438.62 34.55 L 436.10 34.04 L 434.03 33.29 L 432.33 32.31 L 430.06 30.44 L 428.22 28.33 L 425.00 23.96 L 423.30 22.04 L 421.38 20.55 L 419.94 19.88 L 418.20 19.50 L 416.07 19.46 L 411.68 19.58 L 407.48 19.23 L 403.45 18.45 L 399.56 17.23 L 395.79 15.56 L 393.25 14.57 Z" fill="#2d2c3e" fill-rule="evenodd" group-id="1,6,28,42,59" id="路径-25-copy-3" node-id="111" stroke="none" target-height="34.055744" target-width="58.654633" target-x="393.25415" target-y="0.5228882"></path><path d="M 317.04 113.92 L 324.82 101.35" fill="none" group-id="1,6" id="路径-119" node-id="112" stroke="#13161a" stroke-linecap="butt" stroke-width="1" target-height="12.571426" target-width="7.781189" target-x="317.04236" target-y="101.34694"></path></g><g node-id="507"><g node-id="529"><g node-id="543"><path d="M 94.14 309.92 L 52.19 319.97 L 53.33 335.39 L 102.03 319.13 Z" fill="#ffc1c7" fill-rule="evenodd" group-id="1,7,29,43" id="路径-9-copy-10" node-id="116" stroke="none" target-height="25.470154" target-width="49.83835" target-x="52.19008" target-y="309.91818"></path><path d="M 52.86 319.68 L 54.11 326.06 L 56.31 335.84 L 41.15 341.46 L 35.56 332.96 L 43.06 325.76 L 47.72 321.76 L 50.42 319.88 L 51.84 319.26 L 52.53 319.28 L 52.86 319.68 Z" fill="#313b40" fill-rule="evenodd" group-id="1,7,29,43" id="矩形-copy-9" node-id="117" stroke="none" target-height="22.202606" target-width="20.755157" target-x="35.55707" target-y="319.25775"></path><path d="M 53.46 319.65 L 56.99 335.59" fill="none" group-id="1,7,29,43" id="路径-16-copy-7" node-id="118" stroke="#13161a" stroke-linecap="butt" stroke-width="1" target-height="15.942841" target-width="3.532547" target-x="53.457302" target-y="319.6472"></path></g><g node-id="544"><path d="M 31.57 312.76 L 71.71 328.55 L 68.44 343.67 L 22.47 320.79 Z" fill="#ffc1c7" fill-rule="evenodd" group-id="1,7,29,44" id="路径-9-copy-10" node-id="120" stroke="none" target-height="30.901611" target-width="49.236988" target-x="22.47424" target-y="312.76346"></path><path d="M 71.09 328.17 L 68.97 334.32 L 65.42 343.69 L 79.65 351.37 L 86.37 343.74 L 79.95 335.56 L 75.89 330.95 L 73.48 328.71 L 72.16 327.90 L 71.47 327.83 L 71.09 328.17 Z" fill="#4d5761" fill-rule="evenodd" group-id="1,7,29,44" id="矩形-copy-9" node-id="121" stroke="none" target-height="23.548035" target-width="20.953094" target-x="65.42024" target-y="327.82547"></path><path d="M 70.50 328.06 L 64.78 343.36" fill="none" group-id="1,7,29,44" id="路径-16-copy-7" node-id="122" stroke="#13161a" stroke-linecap="butt" stroke-width="1" target-height="15.296051" target-width="5.7169952" target-x="64.783646" target-y="328.05948"></path></g><path d="M 59.84 292.97 L 10.63 294.70 L 3.47 310.05 L 35.29 352.81 L 58.05 318.29 L 77.52 313.65 L 90.22 337.83 L 118.00 322.64 L 118.00 307.35 L 102.79 299.26 Z" fill="#2f2e41" fill-rule="evenodd" group-id="1,7,29" id="路径-129" node-id="123" stroke="none" target-height="59.841278" target-width="114.52631" target-x="3.4736843" target-y="292.9697"></path><path d="M 58.05 318.29 L 69.10 327.11" fill="none" group-id="1,7,29" id="路径-130" node-id="124" stroke="#13161a" stroke-linecap="butt" stroke-width="1" target-height="8.822571" target-width="11.050999" target-x="58.05263" target-y="318.29144"></path><path d="M 56.94 311.08 L 29.77 303.88 L 58.05 318.29" fill="none" group-id="1,7,29" id="路径-131" node-id="125" stroke="#ffffff" stroke-linecap="butt" stroke-width="1" target-height="14.413422" target-width="28.27837" target-x="29.774261" target-y="303.87802"></path><path d="M 77.52 313.65 L 93.84 307.35" fill="none" group-id="1,7,29" id="路径-132" node-id="126" stroke="#ffffff" stroke-linecap="butt" stroke-width="1" target-height="6.292938" target-width="16.317932" target-x="77.52417" target-y="307.35355"></path><path d="M 23.29 239.92 L 22.95 238.80 L 21.98 237.06 L 19.31 232.94 L 17.93 230.55 L 16.73 227.98 L 15.90 225.31 L 15.63 222.61 L 15.83 220.84 L 16.43 219.06 L 17.46 217.24 L 18.70 215.89 L 19.83 215.28 L 20.92 215.20 L 22.09 215.64 L 23.43 216.79 L 25.02 218.96 L 26.89 222.59 L 29.10 228.21 L 31.67 236.41 L 27.66 239.56 L 25.38 240.84 L 24.19 241.07 L 23.57 240.77 L 23.29 239.92 Z" fill="#ffc1c7" fill-rule="evenodd" group-id="1,7,29,45,60" id="路径-65" node-id="128" stroke="none" target-height="25.876907" target-width="16.037098" target-x="15.633995" target-y="215.19646"></path><path d="M 6.89 215.40 L 16.30 213.48 L 27.58 229.35 L 18.65 231.12 Z" fill="#13161a" fill-rule="evenodd" group-id="1,7,29,45,61,73" id="路径-66" node-id="130" stroke="none" target-height="17.636795" target-width="20.691143" target-x="6.8864837" target-y="213.482"></path><path d="M 8.63 215.73 L 17.51 213.89 L 28.10 228.99 L 19.68 230.70 Z" fill="#ffffff" fill-rule="evenodd" group-id="1,7,29,45,61,74" id="路径-66-copy" node-id="131" stroke="#13161a" stroke-linecap="butt" stroke-width="1" target-height="16.810547" target-width="19.463678" target-x="8.634968" target-y="213.88501"></path><path d="M 23.97 220.18 L 25.33 220.70 L 26.28 221.34 L 26.89 222.14 L 26.96 222.84 L 26.55 223.42 L 25.62 223.80 L 24.47 223.88 L 23.04 223.65 L 21.69 223.13 L 20.73 222.49 L 20.12 221.70 L 20.05 220.99 L 20.47 220.41 L 21.39 220.03 L 22.54 219.95 L 23.97 220.18 Z" fill="#ffc1c7" fill-rule="evenodd" group-id="1,7,29,45,62" id="椭圆形" node-id="132" stroke="none" target-height="3.926773" target-width="6.914036" target-x="20.049412" target-y="219.95364"></path><path d="M 69.24 221.05 L 49.11 225.61 L 43.61 299.26 L 103.68 302.86 L 108.16 236.33 L 97.88 229.70 L 89.76 224.88 L 83.44 221.56 L 78.63 219.42 L 74.66 218.12 L 72.14 217.76 L 70.61 217.97 L 69.72 218.56 L 69.25 219.52 L 69.24 221.05 Z" fill="#0092ff" fill-rule="evenodd" group-id="1,7,29" id="路径-123" node-id="133" stroke="none" target-height="85.10185" target-width="64.549225" target-x="43.608673" target-y="217.75673"></path><path d="M 78.74 223.42 L 78.68 223.82 L 78.26 225.11 L 77.59 226.16 L 76.66 227.01 L 75.54 227.60 L 74.33 227.88 L 72.98 227.83 L 71.69 227.41 L 70.65 226.74 L 69.80 225.80 L 69.21 224.68 L 68.94 223.46 L 68.99 222.11 L 69.07 221.72 L 69.10 221.47 L 70.12 215.67 L 70.42 214.92 L 70.95 214.38 L 71.64 214.07 L 72.44 214.05 L 78.20 215.06 L 78.94 215.35 L 79.49 215.88 L 79.80 216.58 L 79.82 217.38 L 78.79 223.18 L 78.74 223.42 Z" fill="#ffc1c7" fill-rule="evenodd" group-id="1,7,29,46,63" id="合并形状-copy" node-id="135" stroke="none" target-height="13.832214" target-width="10.875214" target-x="68.94232" target-y="214.04547"></path><path d="M 68.79 225.48 L 73.34 227.25 L 74.66 227.52 L 75.75 227.44 L 76.68 227.06 L 77.40 226.38 L 78.06 225.12 L 78.63 223.03" fill="none" group-id="1,7,29,46" id="路径-11-copy-2" node-id="136" stroke="#13161a" stroke-linecap="butt" stroke-width="1" target-height="4.4895782" target-width="9.842102" target-x="68.789474" target-y="223.02547"></path><path d="M 93.01 205.13 L 92.19 208.15 L 90.93 210.83 L 89.23 213.22 L 87.15 215.29 L 84.80 216.94 L 82.16 218.20 L 79.35 218.98 L 76.41 219.26 L 73.31 219.00 L 70.30 218.18 L 67.64 216.92 L 65.26 215.22 L 63.21 213.13 L 61.57 210.78 L 60.32 208.12 L 59.54 205.30 L 59.27 202.35 L 59.53 199.23 L 60.36 196.21 L 61.62 193.53 L 63.31 191.14 L 65.39 189.07 L 67.74 187.42 L 70.38 186.17 L 73.20 185.38 L 76.13 185.11 L 79.24 185.36 L 82.24 186.18 L 84.91 187.44 L 87.28 189.15 L 89.34 191.23 L 90.98 193.59 L 92.22 196.24 L 93.00 199.06 L 93.27 202.01 L 93.01 205.13 Z" fill="#4d5761" fill-rule="nonzero" group-id="1,7,29,46,64" id="椭圆形" node-id="138" stroke="none" target-height="34.1485" target-width="33.99716" target-x="59.272614" target-y="185.10693"></path><path d="M 89.97 206.20 L 89.18 209.06 L 87.99 211.60 L 86.38 213.86 L 84.41 215.82 L 82.19 217.39 L 79.68 218.58 L 77.01 219.33 L 74.23 219.58 L 71.29 219.34 L 68.44 218.56 L 65.91 217.37 L 63.66 215.76 L 61.71 213.78 L 60.16 211.55 L 58.98 209.03 L 58.24 206.35 L 57.99 203.56 L 58.23 200.60 L 59.01 197.74 L 60.21 195.20 L 61.81 192.94 L 63.79 190.98 L 66.01 189.41 L 68.52 188.22 L 71.18 187.47 L 73.97 187.22 L 76.91 187.45 L 79.76 188.24 L 82.28 189.43 L 84.54 191.04 L 86.48 193.02 L 88.04 195.25 L 89.22 197.77 L 89.96 200.44 L 90.21 203.24 L 89.97 206.20 Z" fill="#ffc1c7" fill-rule="nonzero" group-id="1,7,29,46,64" id="椭圆形" node-id="139" stroke="none" target-height="32.36917" target-width="32.225723" target-x="57.985695" target-y="187.21515"></path><path d="M 84.43 214.89 L 81.67 216.49 L 78.85 217.53 L 75.91 218.07 L 72.92 218.11 L 70.03 217.67 L 67.19 216.75 L 64.54 215.36 L 62.16 213.52 L 60.00 211.18 L 62.01 213.81 L 64.35 215.94 L 67.05 217.63 L 70.01 218.81 L 73.11 219.44 L 76.41 219.51 L 78.82 219.16 L 81.10 218.52 L 83.27 217.58 L 85.29 216.37 L 87.13 214.91 L 88.78 213.20 L 90.27 211.17 L 91.49 208.90 L 92.55 205.76 L 93.02 202.62 L 92.93 199.42 L 92.27 196.28 L 91.08 193.34 L 89.32 190.55 L 90.76 193.39 L 91.67 196.27 L 92.06 199.24 L 91.96 202.24 L 91.38 205.13 L 90.31 207.94 L 88.81 210.53 L 86.86 212.84 L 84.43 214.89 Z" fill="#000000" fill-opacity="0.1" fill-rule="nonzero" group-id="1,7,29,46,64,75" id="路径" node-id="140" stroke="none" target-height="28.955673" target-width="33.024395" target-x="59.997242" target-y="190.54999"></path><path d="M 72.91 189.20 L 71.83 190.62 L 71.31 191.90 L 70.98 194.08 L 70.85 194.79 L 70.58 194.98 L 71.41 195.38 L 72.52 195.90 L 73.93 196.81 L 75.19 198.02 L 76.16 199.66 L 76.49 200.89 L 76.50 202.40 L 76.10 204.28 L 75.86 205.48 L 75.90 206.86 L 76.27 208.46 L 77.74 208.46 L 77.92 205.23 L 78.36 203.22 L 78.94 202.06 L 79.62 201.46 L 80.42 201.27 L 81.55 201.51 L 82.25 202.12 L 82.61 203.18 L 82.65 205.24 L 82.21 208.46 L 81.66 210.76 L 81.60 211.87 L 82.08 213.11 L 83.32 214.60 L 85.67 216.44 L 87.76 214.90 L 89.65 212.96 L 91.36 210.57 L 92.88 207.66 L 94.20 204.17 L 95.27 199.99 L 95.58 197.49 L 95.52 195.43 L 95.15 193.74 L 94.51 192.33 L 93.22 190.65 L 91.61 189.34 L 89.64 188.35 L 86.39 187.46 L 82.92 187.13 L 79.47 187.26 L 76.59 187.72 L 74.08 188.49 L 72.91 189.20 Z" fill="#4d5761" fill-rule="evenodd" group-id="1,7,29,46" id="路径-122" node-id="141" stroke="none" target-height="29.3163" target-width="25.004517" target-x="70.57895" target-y="187.12596"></path><path d="M 49.11 228.69 L 44.63 253.41 L 39.26 255.36 L 34.49 229.14 L 0.79 249.82 L 21.32 274.99 L 51.79 276.79 L 55.37 261.51 Z" fill="#0092ff" fill-rule="evenodd" group-id="1,7,29" id="路径-124" node-id="142" stroke="none" target-height="48.09659" target-width="54.578945" target-x="0.78947365" target-y="228.69128"></path><path d="M 14.16 240.54 L 32.58 230.49" fill="none" group-id="1,7,29" id="路径-67" node-id="143" stroke="#13161a" stroke-linecap="butt" stroke-width="1" target-height="10.05217" target-width="18.427269" target-x="14.155975" target-y="230.4899"></path><path d="M 43.61 276.79 L 53.58 276.79 L 55.37 233.76" fill="none" group-id="1,7,29" id="路径-128" node-id="144" stroke="#13161a" stroke-linecap="butt" stroke-width="1" target-height="43.028473" target-width="11.759747" target-x="43.608673" target-y="233.7594"></path><path d="M 68.64 285.40 L 67.22 285.01 L 64.82 284.73 L 59.18 284.15 L 56.17 283.55 L 53.34 282.58 L 51.62 281.64 L 50.16 280.43 L 48.94 278.91 L 48.27 277.36 L 48.31 276.23 L 48.94 275.33 L 50.36 274.56 L 53.05 274.01 L 57.66 273.88 L 65.00 274.43 L 68.30 280.88 L 69.49 283.96 L 69.63 285.17 L 69.36 285.53 L 68.64 285.40 Z" fill="#ffc1c7" fill-rule="evenodd" group-id="1,7,29,47" id="路径-65-copy" node-id="145" stroke="none" target-height="11.654236" target-width="21.364182" target-x="48.266068" target-y="273.87634"></path><path d="M 95.08 239.03 L 83.06 272.29 L 60.74 272.29 L 59.25 305.26 L 110.84 283.08 L 108.16 239.03 Z" fill="#0092ff" fill-rule="evenodd" group-id="1,7,29" id="路径-126" node-id="146" stroke="none" target-height="66.224976" target-width="51.588905" target-x="59.253197" target-y="239.0303"></path><path d="M 59.79 288.03 L 60.86 271.84" fill="none" group-id="1,7,29" id="路径-67-copy" node-id="147" stroke="#13161a" stroke-linecap="butt" stroke-width="1" target-height="16.181824" target-width="1.0699577" target-x="59.787132" target-y="271.84344"></path><path d="M 65.00 274.43 L 95.08 271.84 L 95.08 243.30" fill="none" group-id="1,7,29" id="路径-127" node-id="148" stroke="#13161a" stroke-linecap="butt" stroke-width="1" target-height="31.137573" target-width="30.079155" target-x="64.997856" target-y="243.29639"></path><path d="M 70.52 301.06 L 71.23 300.39 L 74.63 298.50 L 83.94 294.18 L 103.68 285.78" fill="none" group-id="1,7,29" id="路径-9" node-id="149" stroke="#13161a" stroke-linecap="butt" stroke-width="1" target-height="15.282837" target-width="33.168785" target-x="70.51543" target-y="285.77777"></path></g><path d="M 61.90 192.99 L 60.12 189.95 L 59.20 187.42 L 58.95 185.29 L 59.26 183.43 L 60.10 181.76 L 61.54 180.21 L 65.33 177.30 L 66.09 177.02 L 66.02 177.51 L 65.12 179.31 L 68.70 177.51 L 66.91 180.21 L 72.34 179.67 L 76.43 179.72 L 79.44 180.21 L 84.57 181.73 L 87.33 182.86 L 89.98 184.35 L 91.58 185.57 L 92.96 187.01 L 94.11 188.69 L 95.26 191.40 L 95.89 194.51 L 95.95 198.11 L 95.35 202.31 L 92.28 201.35 L 89.25 199.98 L 86.25 198.17 L 83.26 195.88 L 80.06 192.84 L 78.04 190.90 L 77.06 190.30 L 75.76 189.88 L 74.21 189.67 L 71.74 189.59 L 68.10 189.85 L 65.37 190.56 L 63.36 191.62 L 61.90 192.99 Z" fill="#2f2e41" fill-rule="evenodd" group-id="1,7" id="路径-123-copy-4" node-id="150" stroke="none" target-height="25.29451" target-width="36.9972" target-x="58.949196" target-y="177.01558"></path></g><g node-id="508"><path d="M 11.71 149.71 L 40.00 149.71 L 41.18 149.95 L 42.12 150.59 L 42.76 151.54 L 43.00 152.71 L 43.00 175.99 L 42.76 177.16 L 42.12 178.11 L 41.18 178.75 L 40.00 178.99 L 37.59 178.99 L 37.59 184.42 L 28.85 178.99 L 11.71 178.99 L 10.53 178.75 L 9.59 178.11 L 8.95 177.16 L 8.71 175.99 L 8.71 152.71 L 8.95 151.54 L 9.59 150.59 L 10.53 149.95 L 11.71 149.71 Z" fill="#ffc82c" fill-rule="evenodd" group-id="1,8" id="矩形" node-id="152" stroke="none" target-height="34.701096" target-width="34.292683" target-x="8.707317" target-y="149.71428"></path><path d="M 34.38 180.80 L 34.38 175.77 L 37.29 175.77 L 38.27 175.57 L 39.06 175.04 L 39.59 174.25 L 39.79 173.27 L 39.79 150.00 L 39.59 149.02 L 39.06 148.23 L 38.27 147.70 L 37.29 147.50 L 9.00 147.50 L 8.02 147.70 L 7.23 148.23 L 6.70 149.02 L 6.50 150.00 L 6.50 173.27 L 6.70 174.25 L 7.23 175.04 L 8.02 175.57 L 9.00 175.77 L 26.28 175.77 L 34.38 180.80 Z" fill="none" group-id="1,8" id="矩形-copy-44" node-id="153" stroke="#13161a" stroke-linecap="butt" stroke-width="1" target-height="33.30191" target-width="33.292683" target-x="6.5" target-y="147.5"></path><g node-id="530"><g node-id="548"><path d="M 21.67 162.75 L 19.69 162.75 L 19.69 160.49 L 19.99 159.11 L 20.81 157.99 L 22.05 157.23 L 23.61 156.95 L 25.06 157.23 L 26.30 157.99 L 27.17 159.11 L 27.41 159.77 L 27.49 160.49 L 27.49 162.75 L 25.59 162.75 L 25.59 160.92 L 25.44 160.03 L 25.04 159.42 L 24.41 159.03 L 23.55 158.89 L 22.77 159.03 L 22.19 159.42 L 21.81 160.03 L 21.67 160.92 L 21.67 162.75 Z M 28.43 163.67 L 29.16 163.97 L 29.39 164.30 L 29.46 164.68 L 29.46 169.45 L 29.31 170.22 L 28.91 170.85 L 28.29 171.27 L 27.52 171.43 L 19.60 171.43 L 18.83 171.27 L 18.24 170.87 L 17.87 170.28 L 17.73 169.55 L 17.73 164.68 L 18.03 163.97 L 18.75 163.67 L 19.69 163.67 L 21.67 163.67 L 25.59 163.67 L 27.49 163.67 L 28.43 163.67 L 28.43 163.67 Z" fill="#ffffff" fill-rule="nonzero" group-id="1,8,30,48" id="形状" node-id="156" stroke="none" target-height="14.476196" target-width="11.731707" target-x="17.731707" target-y="156.95238"></path></g></g></g><g node-id="509"><path d="M 265.71 26.71 L 294.00 26.71 L 295.18 26.95 L 296.12 27.59 L 296.76 28.54 L 297.00 29.71 L 297.00 52.99 L 296.76 54.16 L 296.12 55.11 L 295.18 55.75 L 294.00 55.99 L 291.59 55.99 L 291.59 61.42 L 282.85 55.99 L 265.71 55.99 L 264.53 55.75 L 263.59 55.11 L 262.95 54.16 L 262.71 52.99 L 262.71 29.71 L 262.95 28.54 L 263.59 27.59 L 264.53 26.95 L 265.71 26.71 Z M 279.85 37.57 L 279.59 36.93 L 278.95 36.67 L 278.31 36.93 L 278.05 37.58 L 278.32 38.21 L 278.96 38.48 L 279.59 38.21 L 279.85 37.57 Z M 283.87 33.53 L 282.07 33.36 L 280.46 32.89 L 279.01 32.14 L 277.52 32.89 L 275.88 33.36 L 274.05 33.53 L 271.73 33.26 L 271.73 41.26 L 272.04 42.77 L 272.71 44.24 L 273.79 45.69 L 275.12 46.96 L 276.81 48.17 L 278.95 49.33 L 282.02 47.57 L 284.21 45.69 L 285.31 44.24 L 285.95 42.77 L 286.17 41.26 L 286.17 33.23 L 283.87 33.53 Z M 279.69 46.44 L 278.26 46.44 L 278.23 39.96 L 277.52 39.62 L 276.95 39.08 L 276.58 38.39 L 276.43 37.58 L 276.63 36.61 L 277.16 35.82 L 277.95 35.28 L 278.93 35.08 L 279.91 35.27 L 280.70 35.79 L 281.24 36.58 L 281.44 37.56 L 281.31 38.36 L 280.95 39.06 L 280.39 39.60 L 279.66 39.96 L 279.68 43.59 L 281.46 43.58 L 281.46 44.30 L 279.68 44.81 L 279.69 46.44 Z" fill="#13ce66" fill-rule="evenodd" group-id="1,9" id="合并形状" node-id="158" stroke="none" target-height="34.701088" target-width="34.292694" target-x="262.7073" target-y="26.714285"></path><path d="M 288.38 57.80 L 288.38 52.77 L 291.29 52.77 L 292.27 52.57 L 293.06 52.04 L 293.59 51.25 L 293.79 50.27 L 293.79 27.00 L 293.59 26.02 L 293.06 25.23 L 292.27 24.70 L 291.29 24.50 L 263.00 24.50 L 262.02 24.70 L 261.23 25.23 L 260.70 26.02 L 260.50 27.00 L 260.50 50.27 L 260.70 51.25 L 261.23 52.04 L 262.02 52.57 L 263.00 52.77 L 280.28 52.77 L 288.38 57.80 Z" fill="none" group-id="1,9" id="矩形-copy-44" node-id="159" stroke="#13161a" stroke-linecap="butt" stroke-width="1" target-height="33.301907" target-width="33.292694" target-x="260.5" target-y="24.5"></path></g><path d="M 25.00 131.00 L 25.38 38.00 L 243.00 38.00" fill="none" group-id="1" id="路径-133" node-id="160" stroke="#13ce66" stroke-dasharray="5 5" stroke-linecap="round" stroke-width="3" target-height="93" target-width="218" target-x="25" target-y="38"></path><path d="M 256.39 37.48 L 244.49 43.20 L 244.49 31.76 Z" fill="#13ce66" fill-rule="evenodd" group-id="1,10" id="矩形" node-id="161" stroke="none" target-height="11.442596" target-width="11.903259" target-x="244.49158" target-y="31.755089"></path><path d="M 25.77 143.39 L 20.05 131.47 L 31.49 131.47 Z" fill="#13ce66" fill-rule="evenodd" group-id="1,11" id="矩形-copy-2" node-id="162" stroke="none" target-height="11.916214" target-width="11.430183" target-x="20.054863" target-y="131.4725"></path><path d="M 241.30 82.50 L 236.74 84.09 L 233.02 85.97 L 230.01 88.12 L 227.63 90.53 L 225.79 93.22 L 224.46 96.24 L 223.64 99.62 L 223.35 103.47" fill="none" group-id="1,12,31,49" id="路径-60" node-id="166" stroke="#13161a" stroke-linecap="butt" stroke-width="2" target-height="20.964287" target-width="17.948868" target-x="223.35152" target-y="82.503044"></path><path d="M 239.82 80.81 L 240.02 82.37 L 240.56 83.72 L 241.47 84.90 L 242.64 85.83 L 243.99 86.41 L 245.59 86.66 L 247.19 86.47 L 248.56 85.93 L 249.76 85.05 L 250.71 83.90 L 251.30 82.57 L 251.55 81.01 L 251.36 79.45 L 250.81 78.10 L 249.91 76.92 L 248.73 76.00 L 247.38 75.41 L 245.79 75.16 L 244.19 75.36 L 242.81 75.89 L 241.61 76.78 L 240.66 77.93 L 240.07 79.26 L 239.82 80.81 Z" fill="#ff3b30" fill-rule="evenodd" group-id="1,12,31,49,65" id="椭圆形" node-id="167" stroke="none" target-height="11.494865" target-width="11.733948" target-x="239.8191" target-y="75.16439"></path><path d="M 241.20 81.49 L 241.40 83.05 L 241.94 84.40 L 242.85 85.58 L 244.02 86.50 L 245.37 87.09 L 246.97 87.34 L 248.57 87.14 L 249.94 86.61 L 251.14 85.72 L 252.09 84.57 L 252.68 83.24 L 252.93 81.69 L 252.74 80.13 L 252.19 78.78 L 251.29 77.60 L 250.11 76.67 L 248.76 76.09 L 247.17 75.84 L 245.57 76.03 L 244.19 76.57 L 242.99 77.45 L 242.04 78.60 L 241.45 79.93 L 241.20 81.49 Z" fill="none" group-id="1,12,31,49,66" id="椭圆形-copy-8" node-id="168" stroke="#313b40" stroke-linecap="butt" stroke-width="0.5" target-height="11.494873" target-width="11.733948" target-x="241.19978" target-y="75.84065"></path><path d="M 232.66 65.63 L 230.58 67.03 L 228.73 68.89 L 227.09 71.26 L 225.66 74.24 L 224.48 77.94 L 223.60 82.48 L 223.08 88.01 L 222.99 94.70 L 223.44 102.70" fill="none" group-id="1,12,31,50" id="路径-60" node-id="170" stroke="#13161a" stroke-linecap="butt" stroke-width="2" target-height="37.07917" target-width="9.669708" target-x="222.99406" target-y="65.62564"></path><path d="M 230.44 65.34 L 231.63 66.38 L 232.94 67.02 L 234.40 67.31 L 235.88 67.22 L 237.27 66.76 L 238.61 65.89 L 239.65 64.69 L 240.31 63.37 L 240.60 61.92 L 240.52 60.43 L 240.07 59.05 L 239.21 57.72 L 238.01 56.68 L 236.70 56.04 L 235.24 55.76 L 233.76 55.84 L 232.37 56.31 L 231.04 57.18 L 229.99 58.38 L 229.34 59.69 L 229.04 61.15 L 229.12 62.63 L 229.58 64.02 L 230.44 65.34 Z" fill="#ff3b30" fill-rule="evenodd" group-id="1,12,31,50,67" id="椭圆形" node-id="171" stroke="none" target-height="11.551216" target-width="11.556534" target-x="229.0435" target-y="55.756935"></path><path d="M 231.91 64.93 L 233.10 65.97 L 234.41 66.61 L 235.87 66.90 L 237.35 66.81 L 238.74 66.35 L 240.08 65.48 L 241.12 64.28 L 241.78 62.96 L 242.07 61.51 L 241.99 60.02 L 241.54 58.64 L 240.68 57.31 L 239.48 56.27 L 238.17 55.63 L 236.72 55.35 L 235.23 55.43 L 233.84 55.90 L 232.51 56.77 L 231.46 57.97 L 230.81 59.28 L 230.51 60.74 L 230.59 62.22 L 231.05 63.61 L 231.91 64.93 Z" fill="none" group-id="1,12,31,50,68" id="椭圆形-copy-8" node-id="172" stroke="#313b40" stroke-linecap="butt" stroke-width="0.5" target-height="11.551212" target-width="11.556534" target-x="230.51382" target-y="55.346813"></path><path d="M 216.78 97.82 L 217.69 100.25 L 218.66 102.26 L 219.77 104.02 L 220.76 105.16 L 221.83 105.87 L 222.64 105.92 L 223.27 105.40 L 223.71 104.20 L 223.85 102.69 L 223.71 100.62 L 223.32 98.42 L 222.62 95.92 L 221.71 93.49 L 220.74 91.48 L 219.63 89.72 L 218.64 88.58 L 217.57 87.87 L 216.76 87.82 L 216.13 88.34 L 215.69 89.54 L 215.56 91.05 L 215.69 93.13 L 216.09 95.32 L 216.78 97.82 Z" fill="#13ce66" fill-rule="evenodd" group-id="1,12,31,51" id="椭圆形" node-id="173" stroke="none" target-height="18.094345" target-width="8.291351" target-x="215.55508" target-y="87.82413"></path><path d="M 226.34 97.54 L 223.85 100.14 L 222.29 102.40 L 221.61 103.98 L 221.52 105.03 L 221.81 105.75 L 222.49 106.11 L 223.54 106.12 L 225.19 105.62 L 227.60 104.30 L 230.44 102.09 L 232.94 99.49 L 234.50 97.24 L 235.17 95.65 L 235.27 94.60 L 234.98 93.89 L 234.30 93.52 L 233.24 93.51 L 231.60 94.01 L 229.19 95.33 L 226.34 97.54 Z" fill="#13ce66" fill-rule="evenodd" group-id="1,12,31,52" id="椭圆形-copy-9" node-id="174" stroke="none" target-height="12.615921" target-width="13.749619" target-x="221.51735" target-y="93.50873"></path><path d="M 214.95 99.33 L 234.78 99.33 L 230.65 116.60 L 219.12 116.60 Z" fill="#7c868d" fill-rule="evenodd" group-id="1,12,32,53,69" node-id="494" stroke="none" target-height="17.26664" target-width="19.835754" target-x="214.94827" target-y="99.330444"></path><path d="M 230.53 98.00 L 230.53 117.73 L 237.97 105.40 L 236.73 99.33 Z" fill="#4d5761" fill-rule="evenodd" group-id="1,12,32,53,70" node-id="499" stroke="none" target-height="19.7333" target-width="7.4384155" target-x="230.53143" target-y="98.00008"></path></g></svg>